<svg xmlns="http://www.w3.org/2000/svg" width="31.634" height="29.304" viewBox="0 0 31.634 29.304">
  <g id="Grupo_31" data-name="Grupo 31" transform="translate(-571.868 -139.09)">
    <path id="Caminho_45" data-name="Caminho 45" d="M574.763,161.277l4.361,4.6a.495.495,0,0,1-.256.823l-6.38,1.68a.494.494,0,0,1-.6-.353.491.491,0,0,1,.008-.276h0l2.024-6.3a.5.5,0,0,1,.848-.171" fill-rule="evenodd"/>
    <path id="Caminho_46" data-name="Caminho 46" d="M588.978,152.2l13.682-12.967a.5.5,0,0,1,.836.429l-1.3,11.453h0a.492.492,0,0,1-.148.283L588.988,163.78a.5.5,0,0,1-.7-.017l-6.869-7.224h0l-4.021-4.244-.006-.006a.5.5,0,0,1,.016-.7l5.379-5.111a.5.5,0,0,1,.7.017l5.414,5.7a.06.06,0,0,0,.079,0" fill="#22ff62" fill-rule="evenodd"/>
  </g>
</svg>
