<?xml version="1.0" encoding="UTF-8"?>
<svg xmlns="http://www.w3.org/2000/svg" xmlns:xlink="http://www.w3.org/1999/xlink" width="50pt" height="50pt" viewBox="0 0 50 50" version="1.1">
<g id="surface1">
<path style=" stroke:none;fill-rule:evenodd;fill-opacity:1;" d="M 41.027344 29.097656 C 42.304688 29.097656 42.941406 29.394531 44.046875 29.820312 C 44.640625 30.035156 44.046875 29.226562 43.621094 28.84375 C 43.109375 28.503906 42.726562 28.25 41.75 28.078125 C 40.773438 27.90625 39.625 27.824219 38.519531 28.164062 C 39.371094 27.058594 40.09375 26.503906 41.453125 25.570312 L 42.429688 24.976562 C 42.941406 24.636719 43.152344 24.292969 42.898438 23.445312 C 42.175781 23.273438 41.453125 23.191406 40.730469 23.148438 L 40.902344 21.957031 C 40.941406 21.746094 40.347656 21.703125 40.136719 21.871094 C 39.921875 22.042969 39.835938 22.550781 39.796875 23.148438 C 38.816406 23.148438 37.882812 23.273438 36.988281 23.445312 C 36.480469 23.53125 36.566406 23.871094 36.566406 24.125 C 36.566406 24.378906 36.90625 24.675781 37.246094 24.636719 C 38.945312 24.210938 40.179688 24.292969 41.070312 24.421875 C 40.261719 24.933594 39.285156 25.613281 38.691406 26.121094 C 37.796875 26.886719 37.328125 27.398438 36.820312 28.289062 C 36.734375 28.417969 36.523438 28.800781 36.605469 29.140625 C 36.691406 29.4375 36.863281 29.652344 37.03125 29.609375 C 37.328125 29.609375 38.519531 29.226562 39.921875 29.097656 L 39.878906 30.5 C 39.878906 30.757812 40.519531 30.757812 40.730469 30.5 C 40.984375 30.289062 41.027344 29.734375 41.027344 29.097656 Z M 35.628906 23.402344 C 35.542969 23.316406 35.203125 23.230469 34.992188 23.191406 C 34.652344 23.191406 34.398438 23.316406 34.355469 23.613281 C 34.226562 24.59375 34.183594 26.039062 34.015625 27.226562 C 33.84375 28.503906 33.078125 28.929688 32.570312 28.84375 C 31.71875 28.671875 31.507812 27.738281 31.546875 26.292969 C 31.589844 24.761719 32.058594 23.273438 31.804688 23.191406 C 30.699219 22.976562 29.933594 24.421875 30.019531 27.015625 C 30.019531 28.417969 30.441406 29.695312 31.804688 30.203125 C 33.078125 30.671875 34.355469 29.566406 34.480469 29.140625 L 34.609375 30.246094 C 34.738281 30.457031 35.246094 30.246094 35.460938 30.117188 C 35.714844 30.035156 35.882812 29.863281 35.84375 29.566406 C 35.671875 28.121094 35.671875 27.3125 35.671875 25.824219 L 35.671875 23.402344 Z M 27.722656 22.167969 C 27.796875 22.421875 27.984375 22.628906 28.234375 22.722656 C 28.445312 22.808594 28.617188 22.808594 28.785156 22.765625 L 29.125 22.636719 L 29.253906 22.550781 C 29.550781 22.46875 29.761719 22.085938 29.679688 21.746094 C 29.59375 21.363281 29.167969 21.191406 28.53125 21.363281 C 27.933594 21.53125 27.636719 21.785156 27.679688 22.210938 Z M 27.382812 29.90625 C 27.46875 30.246094 27.851562 30.417969 28.316406 30.332031 C 28.742188 30.332031 29.082031 30.160156 29.082031 29.90625 L 28.914062 28.671875 C 28.65625 27.101562 28.65625 25.65625 28.914062 24.167969 C 28.996094 23.871094 28.699219 23.613281 28.359375 23.53125 C 27.933594 23.445312 27.59375 23.65625 27.511719 24.082031 C 27.253906 25.359375 27.128906 27.78125 27.382812 29.90625 Z M 19.136719 22.722656 C 19.347656 22.589844 19.558594 22.464844 19.773438 22.339844 L 20.835938 21.746094 C 21.347656 21.402344 21.21875 20.851562 20.582031 20.679688 C 20.027344 20.554688 17.945312 22.167969 18.03125 22.636719 C 18.03125 23.105469 18.5 23.105469 19.136719 22.722656 Z M 26.53125 22.976562 C 27.210938 20.597656 26.957031 17.28125 25.683594 16.941406 C 24.40625 16.644531 23.046875 19.152344 22.792969 21.363281 C 22.554688 23.058594 22.613281 24.785156 22.960938 26.460938 C 22.960938 26.675781 23.046875 26.761719 23.132812 27.183594 C 22.707031 28.035156 21.347656 29.140625 20.070312 29.140625 C 18.964844 29.140625 18.371094 28.332031 18.242188 27.441406 L 19.09375 27.441406 C 19.601562 27.398438 20.070312 27.3125 20.539062 27.101562 C 21.515625 26.632812 22.070312 25.65625 21.8125 24.804688 C 21.558594 24.039062 21.046875 23.53125 20.113281 23.316406 C 18.496094 23.074219 16.964844 24.109375 16.585938 25.699219 C 16.160156 27.441406 17.011719 29.652344 18.5 30.246094 C 19.730469 30.757812 20.878906 30.585938 21.898438 29.949219 C 22.550781 29.539062 23.105469 28.988281 23.515625 28.332031 C 24.238281 29.777344 25.128906 31.308594 26.914062 32.328125 C 29.464844 33.773438 32.527344 32.964844 33.929688 31.394531 C 34.054688 31.265625 34.015625 31.097656 33.84375 31.054688 L 33.503906 31.140625 C 33.375 31.140625 30.441406 32.585938 27.722656 31.519531 C 26.277344 30.925781 24.917969 28.972656 24.535156 27.484375 C 25.597656 25.953125 25.9375 25.015625 26.53125 22.976562 Z M 19.902344 25.996094 C 19.378906 26.398438 18.730469 26.59375 18.074219 26.546875 C 18.074219 26.082031 18.117188 25.699219 18.199219 25.441406 C 18.414062 24.507812 19.136719 24.039062 19.902344 24.292969 C 20.582031 24.550781 20.625 25.398438 19.902344 25.996094 Z M 24.449219 21.53125 C 24.746094 20.214844 25.214844 19.234375 25.46875 19.195312 C 25.683594 19.195312 25.808594 19.492188 25.808594 20.042969 C 25.808594 20.640625 25.726562 21.445312 25.511719 22.339844 C 25.28125 23.671875 24.851562 24.960938 24.238281 26.164062 C 23.898438 24.636719 24.109375 23.105469 24.449219 21.488281 Z M 11.058594 29.269531 C 11.484375 29.097656 11.570312 28.671875 11.570312 28.289062 C 11.695312 26.761719 12.84375 23.613281 13.992188 22.339844 C 13.992188 22.210938 13.355469 25.613281 13.566406 27.484375 C 13.863281 29.351562 14.671875 31.734375 17.816406 32.285156 C 18.539062 32.414062 19.390625 32.160156 19.433594 31.988281 C 19.476562 31.777344 19.007812 31.777344 18.414062 31.605469 C 16.710938 31.140625 15.777344 29.90625 15.308594 28.164062 C 14.800781 26.378906 15.140625 23.148438 15.523438 21.488281 C 15.566406 21.148438 15.820312 20.808594 15.949219 20.425781 C 15.988281 20.214844 15.90625 20 15.648438 20 C 15.480469 19.917969 15.226562 19.957031 14.96875 20 C 14.460938 20.128906 13.566406 20.679688 12.757812 21.785156 C 12.007812 22.964844 11.382812 24.21875 10.890625 25.527344 C 10.429688 23.6875 10.144531 21.808594 10.039062 19.917969 C 10.125 19.066406 10.292969 19.109375 10.335938 18.683594 C 10.378906 18.046875 10.25 17.621094 9.699219 17.535156 C 9.1875 17.492188 8.722656 17.789062 8.421875 18.257812 C 8.082031 18.683594 7.316406 20.214844 6.636719 23.53125 C 5.957031 26.84375 5.703125 29.4375 5.703125 30.117188 C 5.703125 30.839844 5.914062 31.222656 6.46875 31.265625 C 7.0625 31.308594 7.53125 30.96875 7.53125 30.417969 C 7.472656 27.21875 7.859375 24.027344 8.679688 20.9375 C 8.773438 23.601562 9.261719 26.234375 10.125 28.757812 C 10.292969 29.226562 10.632812 29.480469 11.101562 29.3125 Z M 11.058594 29.269531 "/>
</g>
</svg>
