<svg xmlns="http://www.w3.org/2000/svg" viewBox="0 0 84.586 124.36" class="para-header__logo-pavao"> <g><circle cx="10.272" cy="14.258" r="1.942"></circle><circle cx="22.872" cy="14.258" r="1.942"></circle><ellipse cx="16.577" cy="8.099" rx="3.057" ry="8.103"></ellipse><path d="M49.73 54.646H26.064a17.3 17.3 0 0 1-16.8-21.418c2.43 3.3 6.758 4.55 10.574 3.08l4.955 2.937a1.1 1.1 0 0 0 1.585-1.331l-2.033-5.4A9.07 9.07 0 0 0 10.156 21.43 34.72 34.72 0 0 0 .62 52.4a34.72 34.72 0 0 0 20.183 25.351l4.558 12.522-2.944 8.09H9.497l-1.89 5.2h12.918l-1.892 5.2H5.714l-1.892 5.2h18.455l12.13-33.332h.284l3.51 9.645-2.944 8.09H30l-1.89 5.2h5.257l-1.892 5.2h-5.257l-1.892 5.2h10.788l12.13-33.332h2.49a8.87 8.87 0 0 1 8.867 8.867 8.87 8.87 0 0 1-8.867 8.867h-6.9l-1.892 5.2h8.788c7.23.002 13.282-5.476 14-12.67S59.595 77.14 52.508 75.714c1.823-1.1 3.542-2.363 5.134-3.776 8.28 3.728 12.83 12.732 10.922 21.61S58.8 108.764 49.73 108.763H39.05l-1.89 5.2h12.57a24.46 24.46 0 0 0 11.693-45.944 34.5 34.5 0 0 0 3.016-4.261c11.676 6.67 17.403 20.36 13.952 33.358S63.177 119.16 49.73 119.158H1.93l-1.89 5.2h49.69c19.25 0 34.854-15.605 34.854-34.854S68.98 54.65 49.73 54.65zm-33.162-30.67c1.848 0 3.438 1.305 3.8 3.117s-.61 3.627-2.317 4.334-3.676.1-4.702-1.427-.825-3.584.482-4.9a3.85 3.85 0 0 1 2.738-1.134zM55.52 66.8A29.48 29.48 0 0 1 5.195 45.956v-.17c3.45 8.493 11.698 14.05 20.865 14.057h23.666c3.393-.003 6.76.58 9.955 1.72-1.185 1.897-2.58 3.654-4.16 5.237z"></path></g> </svg>