<svg width="26" height="22" viewBox="0 0 26 22" fill="none" xmlns="http://www.w3.org/2000/svg">
<path d="M10.165 3.91323L9.87988 4.02539L11.8698 9.16952L12.155 9.05736L10.165 3.91323Z" fill="#93C9E5"/>
<path d="M14.1149 1.23582L13.9233 0.995117L9.65292 4.45126L9.8445 4.69196L14.1149 1.23582Z" fill="#93C9E5"/>
<path d="M14.9606 5.28698L15.0171 4.98364L9.63536 3.96508L9.5789 4.26843L14.9606 5.28698Z" fill="#93C9E5"/>
<path d="M17.3754 5.50278L17.6074 5.30151L14.0367 1.11535L13.8047 1.31662L17.3754 5.50278Z" fill="#93C9E5"/>
<path d="M20.5405 7.10304L20.8066 6.95068L18.1036 2.14868L17.8374 2.30103L20.5405 7.10304Z" fill="#93C9E5"/>
<path d="M16.7193 9.02518L16.8179 9.31738L21.4514 7.72859L21.3529 7.43638L16.7193 9.02518Z" fill="#93C9E5"/>
<path d="M17.3955 9.36339L17.6343 9.16895L14.1846 4.86205L13.9459 5.05649L17.3955 9.36339Z" fill="#93C9E5"/>
<path d="M21.126 11.5435V11.2349H15.6503V11.5435H21.126Z" fill="#93C9E5"/>
<path d="M14.8665 16.0558L15.1714 16.0288L14.6932 10.5282L14.3883 10.5552L14.8665 16.0558Z" fill="#93C9E5"/>
<path d="M12.2513 13.4854L12.5547 13.4443L11.9384 8.81114L11.635 8.85217L12.2513 13.4854Z" fill="#93C9E5"/>
<path d="M4.41755 14.9986L4.68262 14.8442L1.94477 10.0623L1.6797 10.2167L4.41755 14.9986Z" fill="#93C9E5"/>
<path d="M9.53148 12.721L9.3999 12.4424L4.45597 14.816L4.58755 15.0947L9.53148 12.721Z" fill="#93C9E5"/>
<path d="M9.59858 12.092L9.31787 11.969L7.13532 17.0331L7.41602 17.1561L9.59858 12.092Z" fill="#93C9E5"/>
<path d="M11.963 16.8894L11.9556 16.5808L6.48147 16.7148L6.4889 17.0233L11.963 16.8894Z" fill="#93C9E5"/>
<path d="M12.8112 13.5092L12.8618 13.2048L8.64876 12.4931L8.59819 12.7975L12.8112 13.5092Z" fill="#93C9E5"/>
<path d="M11.8807 16.4811L11.6411 16.2891L8.88244 19.7888L9.12204 19.9808L11.8807 16.4811Z" fill="#93C9E5"/>
<path d="M13.8622 11.8463L14.0635 12.0789L18.1885 8.4476L17.9872 8.2151L13.8622 11.8463Z" fill="#93C9E5"/>
<path d="M11.8173 8.56699L11.7046 8.27563L5.62185 10.6683L5.73456 10.9597L11.8173 8.56699Z" fill="#93C9E5"/>
<path d="M5.04451 3.57655L4.8125 3.37524L2.42691 6.17104L2.65892 6.37235L5.04451 3.57655Z" fill="#93C9E5"/>
<path d="M2.90108 5.85775L2.63281 6.00635L5.26908 10.8459L5.53734 10.6974L2.90108 5.85775Z" fill="#93C9E5"/>
<path d="M4.85652 3.6975L4.6123 3.88354L6.43275 6.31345L6.67696 6.1274L4.85652 3.6975Z" fill="#93C9E5"/>
<path d="M7.32155 1.6536L7.01611 1.63379L6.66466 7.14407L6.9701 7.16388L7.32155 1.6536Z" fill="#93C9E5"/>
<path d="M17.4451 6.30081C17.9662 6.30081 18.3887 5.87478 18.3887 5.34926C18.3887 4.82373 17.9662 4.39771 17.4451 4.39771C16.9239 4.39771 16.5015 4.82373 16.5015 5.34926C16.5015 5.87478 16.9239 6.30081 17.4451 6.30081Z" fill="#FEDD2C"/>
<path d="M11.4772 18.0804C12.2078 18.0804 12.8001 17.4831 12.8001 16.7464C12.8001 16.0096 12.2078 15.4124 11.4772 15.4124C10.7466 15.4124 10.1543 16.0096 10.1543 16.7464C10.1543 17.4831 10.7466 18.0804 11.4772 18.0804Z" fill="#FEDD2C"/>
<path d="M22.4757 13.0078C23.3619 13.0078 24.0802 12.2834 24.0802 11.3898C24.0802 10.4962 23.3619 9.77173 22.4757 9.77173C21.5895 9.77173 20.8711 10.4962 20.8711 11.3898C20.8711 12.2834 21.5895 13.0078 22.4757 13.0078Z" fill="#FEDD2C"/>
<path d="M19.0049 15.5108C19.9248 15.5108 20.6705 14.7588 20.6705 13.8312C20.6705 12.9036 19.9248 12.1516 19.0049 12.1516C18.0851 12.1516 17.3394 12.9036 17.3394 13.8312C17.3394 14.7588 18.0851 15.5108 19.0049 15.5108Z" fill="#FEDD2C"/>
<path d="M14.9291 16.5013C15.7317 16.5013 16.3822 15.8453 16.3822 15.0361C16.3822 14.2268 15.7317 13.5708 14.9291 13.5708C14.1266 13.5708 13.4761 14.2268 13.4761 15.0361C13.4761 15.8453 14.1266 16.5013 14.9291 16.5013Z" fill="#2CB6FE"/>
<path d="M10.139 5.21184C10.6821 5.21184 11.1223 4.76791 11.1223 4.2203C11.1223 3.67269 10.6821 3.22876 10.139 3.22876C9.59599 3.22876 9.15576 3.67269 9.15576 4.2203C9.15576 4.76791 9.59599 5.21184 10.139 5.21184Z" fill="#FEDD2C"/>
<path d="M20.6583 4.35051C21.2182 4.35051 21.6721 3.89281 21.6721 3.32821C21.6721 2.76361 21.2182 2.30591 20.6583 2.30591C20.0984 2.30591 19.6445 2.76361 19.6445 3.32821C19.6445 3.89281 20.0984 4.35051 20.6583 4.35051Z" fill="#FEDD2C"/>
<path d="M23.669 6.22092C24.3569 6.22092 24.9146 5.65855 24.9146 4.96483C24.9146 4.27111 24.3569 3.70874 23.669 3.70874C22.981 3.70874 22.4233 4.27111 22.4233 4.96483C22.4233 5.65855 22.981 6.22092 23.669 6.22092Z" fill="#FEDD2C"/>
<path d="M24.1734 9.23762C24.7468 9.23762 25.2116 8.7689 25.2116 8.19071C25.2116 7.61252 24.7468 7.1438 24.1734 7.1438C23.6001 7.1438 23.1353 7.61252 23.1353 8.19071C23.1353 8.7689 23.6001 9.23762 24.1734 9.23762Z" fill="#FEDD2C"/>
<path d="M5.47176 12.326C6.25574 12.326 6.89127 11.6851 6.89127 10.8946C6.89127 10.104 6.25574 9.46313 5.47176 9.46313C4.68778 9.46313 4.05225 10.104 4.05225 10.8946C4.05225 11.6851 4.68778 12.326 5.47176 12.326Z" fill="#FEDD2C"/>
<path d="M10.6575 2.08743C11.1309 2.08743 11.5147 1.70043 11.5147 1.22304C11.5147 0.745645 11.1309 0.358643 10.6575 0.358643C10.1841 0.358643 9.80029 0.745645 9.80029 1.22304C9.80029 1.70043 10.1841 2.08743 10.6575 2.08743Z" fill="#FEDD2C"/>
<path d="M13.9096 2.39519C14.5622 2.39519 15.0912 1.86174 15.0912 1.2037C15.0912 0.545655 14.5622 0.012207 13.9096 0.012207C13.257 0.012207 12.728 0.545655 12.728 1.2037C12.728 1.86174 13.257 2.39519 13.9096 2.39519Z" fill="#2CB6FE"/>
<path d="M17.683 3.12829C18.4574 3.12829 19.0852 2.49522 19.0852 1.71429C19.0852 0.933361 18.4574 0.300293 17.683 0.300293C16.9086 0.300293 16.2808 0.933361 16.2808 1.71429C16.2808 2.49522 16.9086 3.12829 17.683 3.12829Z" fill="#FEDD2C"/>
<path d="M2.79613 7.04621C3.37793 7.04621 3.84958 6.57061 3.84958 5.98392C3.84958 5.39723 3.37793 4.92163 2.79613 4.92163C2.21432 4.92163 1.74268 5.39723 1.74268 5.98392C1.74268 6.57061 2.21432 7.04621 2.79613 7.04621Z" fill="#FEDD2C"/>
<path d="M4.70404 4.40584C5.06402 4.40584 5.35584 4.11157 5.35584 3.74858C5.35584 3.38558 5.06402 3.09131 4.70404 3.09131C4.34407 3.09131 4.05225 3.38558 4.05225 3.74858C4.05225 4.11157 4.34407 4.40584 4.70404 4.40584Z" fill="#FEDD2C"/>
<path d="M7.16275 3.32731C7.96133 3.32731 8.6087 2.6745 8.6087 1.86922C8.6087 1.06394 7.96133 0.411133 7.16275 0.411133C6.36417 0.411133 5.7168 1.06394 5.7168 1.86922C5.7168 2.6745 6.36417 3.32731 7.16275 3.32731Z" fill="#FEDD2C"/>
<path d="M11.7344 10.4198C12.8233 10.4198 13.706 9.52962 13.706 8.43157C13.706 7.33351 12.8233 6.44336 11.7344 6.44336C10.6454 6.44336 9.7627 7.33351 9.7627 8.43157C9.7627 9.52962 10.6454 10.4198 11.7344 10.4198Z" fill="#2CB6FE"/>
<path d="M21.0597 9.32154C21.9403 9.32154 22.6542 8.60171 22.6542 7.71375C22.6542 6.82579 21.9403 6.10596 21.0597 6.10596C20.1792 6.10596 19.4653 6.82579 19.4653 7.71375C19.4653 8.60171 20.1792 9.32154 21.0597 9.32154Z" fill="#2CB6FE"/>
<path d="M14.6124 12.6222C15.2874 12.6222 15.8346 12.0704 15.8346 11.3897C15.8346 10.709 15.2874 10.1572 14.6124 10.1572C13.9374 10.1572 13.3901 10.709 13.3901 11.3897C13.3901 12.0704 13.9374 12.6222 14.6124 12.6222Z" fill="#FEDD2C"/>
<path d="M1.58186 14.2321C2.10357 14.2321 2.5265 13.8056 2.5265 13.2795C2.5265 12.7534 2.10357 12.3269 1.58186 12.3269C1.06014 12.3269 0.637207 12.7534 0.637207 13.2795C0.637207 13.8056 1.06014 14.2321 1.58186 14.2321Z" fill="#FEDD2C"/>
<path d="M1.67678 11.3898C2.60283 11.3898 3.35355 10.6327 3.35355 9.6989C3.35355 8.76508 2.60283 8.00806 1.67678 8.00806C0.750718 8.00806 0 8.76508 0 9.6989C0 10.6327 0.750718 11.3898 1.67678 11.3898Z" fill="#2CB6FE"/>
<path d="M14.1471 6.3009C14.857 6.3009 15.4324 5.72062 15.4324 5.00482C15.4324 4.28901 14.857 3.70874 14.1471 3.70874C13.4373 3.70874 12.8618 4.28901 12.8618 5.00482C12.8618 5.72062 13.4373 6.3009 14.1471 6.3009Z" fill="#FEDD2C"/>
<path d="M17.3391 10.4496C18.1388 10.4496 18.7871 9.79585 18.7871 8.98944C18.7871 8.18302 18.1388 7.5293 17.3391 7.5293C16.5394 7.5293 15.8911 8.18302 15.8911 8.98944C15.8911 9.79585 16.5394 10.4496 17.3391 10.4496Z" fill="#FEDD2C"/>
<path d="M4.5473 16.1269C5.19312 16.1269 5.71667 15.599 5.71667 14.9477C5.71667 14.2965 5.19312 13.7686 4.5473 13.7686C3.90147 13.7686 3.37793 14.2965 3.37793 14.9477C3.37793 15.599 3.90147 16.1269 4.5473 16.1269Z" fill="#FEDD2C"/>
<path d="M7.80737 21.8014C8.1988 21.8014 8.51611 21.4815 8.51611 21.0868C8.51611 20.692 8.1988 20.3721 7.80737 20.3721C7.41595 20.3721 7.09863 20.692 7.09863 21.0868C7.09863 21.4815 7.41595 21.8014 7.80737 21.8014Z" fill="#FEDD2C"/>
<path d="M9.44542 20.3721C10.0188 20.3721 10.4836 19.9034 10.4836 19.3252C10.4836 18.747 10.0188 18.2783 9.44542 18.2783C8.87204 18.2783 8.40723 18.747 8.40723 19.3252C8.40723 19.9034 8.87204 20.3721 9.44542 20.3721Z" fill="#FEDD2C"/>
<path d="M12.379 14.1141C12.8361 14.1141 13.2067 13.7405 13.2067 13.2795C13.2067 12.8185 12.8361 12.4448 12.379 12.4448C11.9218 12.4448 11.5513 12.8185 11.5513 13.2795C11.5513 13.7405 11.9218 14.1141 12.379 14.1141Z" fill="#FEDD2C"/>
<path d="M9.15468 14.3233C10.0246 14.3233 10.7298 13.6122 10.7298 12.735C10.7298 11.8578 10.0246 11.1467 9.15468 11.1467C8.28478 11.1467 7.57959 11.8578 7.57959 12.735C7.57959 13.6122 8.28478 14.3233 9.15468 14.3233Z" fill="#2CB6FE"/>
<path d="M7.38232 18.2782C8.16517 18.2782 8.7998 17.6382 8.7998 16.8488C8.7998 16.0594 8.16517 15.4194 7.38232 15.4194C6.59947 15.4194 5.96484 16.0594 5.96484 16.8488C5.96484 17.6382 6.59947 18.2782 7.38232 18.2782Z" fill="#2CB6FE"/>
<path d="M6.85986 4.87451C6.51631 4.87431 6.18043 4.97685 5.89468 5.16917C5.60894 5.36149 5.38617 5.63494 5.25457 5.95494C5.12296 6.27494 5.08842 6.62711 5.15532 6.9669C5.22222 7.3067 5.38755 7.61885 5.6304 7.86388C5.87325 8.10892 6.18271 8.27582 6.51964 8.34348C6.85657 8.41114 7.20583 8.37652 7.52324 8.24399C7.84065 8.11147 8.11196 7.88699 8.30284 7.59896C8.49372 7.31093 8.59561 6.97229 8.59561 6.62586C8.59574 6.39592 8.55095 6.1682 8.46378 5.95572C8.37661 5.74325 8.24877 5.55017 8.08758 5.38753C7.92639 5.22489 7.73499 5.09587 7.52434 5.00785C7.31368 4.91982 7.08789 4.87451 6.85986 4.87451Z" fill="#2CB6FE"/>
</svg>
